<?xml version="1.0" standalone="no"?>
<!DOCTYPE svg PUBLIC "-//W3C//DTD SVG 20010904//EN"
 "http://www.w3.org/TR/2001/REC-SVG-20010904/DTD/svg10.dtd">
<svg version="1.0" xmlns="http://www.w3.org/2000/svg"
 width="2377.000000pt" height="2377.000000pt" viewBox="0 0 2377.000000 2377.000000"
 preserveAspectRatio="xMidYMid meet">
<metadata>
Created by potrace 1.11, written by Peter Selinger 2001-2013
</metadata>
<g transform="translate(0.000000,2377.000000) scale(0.100000,-0.100000)"
fill="#000000" stroke="none">
<path d="M8761 20506 c-23 -17 -41 -22 -65 -19 -28 4 -35 1 -41 -16 -5 -18 -9
-19 -28 -10 -16 9 -22 9 -25 0 -5 -16 -65 -71 -77 -71 -6 0 -18 -9 -28 -20 -9
-11 -23 -17 -32 -14 -11 4 -18 -3 -26 -25 -9 -25 -17 -31 -39 -31 -23 0 -27
-3 -23 -24 4 -17 -4 -33 -29 -58 -18 -19 -41 -38 -50 -41 -9 -3 -22 -25 -28
-49 -7 -26 -27 -59 -52 -85 -22 -22 -38 -45 -34 -51 3 -5 -4 -18 -15 -28 -34
-30 -49 -67 -37 -88 8 -15 5 -23 -17 -40 -17 -14 -26 -29 -23 -41 2 -12 -5
-27 -18 -37 -14 -12 -20 -25 -17 -37 6 -25 -23 -125 -41 -140 -8 -6 -17 -32
-21 -57 -5 -34 -12 -48 -26 -51 -10 -3 -20 -9 -20 -14 -3 -19 -5 -24 -12 -35
-4 -7 -6 -30 -5 -53 1 -33 -5 -49 -30 -80 -19 -24 -29 -46 -26 -55 4 -9 1 -23
-6 -31 -6 -8 -9 -23 -5 -35 4 -13 -1 -30 -14 -48 -15 -22 -17 -32 -9 -40 9 -9
9 -18 1 -34 -6 -13 -14 -35 -17 -50 -3 -15 -14 -29 -24 -32 -14 -5 -17 -19
-18 -86 -1 -58 -6 -84 -18 -95 -11 -11 -13 -22 -8 -32 6 -10 2 -23 -14 -41
-26 -27 -30 -52 -13 -83 7 -15 7 -24 0 -33 -6 -7 -13 -52 -16 -100 -3 -49 -12
-102 -21 -124 -10 -20 -16 -41 -15 -46 1 -5 -2 -22 -8 -37 -6 -18 -6 -31 0
-34 5 -4 5 -14 -2 -26 -5 -11 -8 -25 -6 -32 2 -7 0 -20 -5 -31 -7 -12 -6 -22
1 -29 16 -16 14 -52 -4 -67 -10 -9 -12 -17 -5 -30 7 -13 6 -21 -4 -29 -10 -8
-12 -21 -6 -45 4 -18 3 -41 -2 -50 -6 -11 -6 -22 2 -31 8 -10 8 -19 -2 -35
-11 -18 -11 -23 4 -34 16 -12 16 -14 0 -30 -13 -14 -14 -20 -4 -23 17 -7 15
-30 -5 -41 -14 -8 -15 -16 -7 -43 6 -22 6 -49 0 -76 -8 -36 -6 -46 8 -62 14
-15 15 -24 7 -40 -14 -25 -10 -104 7 -123 9 -12 9 -21 -3 -45 -16 -33 -15 -51
5 -98 13 -31 26 -239 20 -322 -2 -16 5 -32 15 -39 13 -9 15 -17 8 -26 -16 -21
-8 -120 11 -130 18 -10 22 -53 6 -63 -8 -5 -7 -11 1 -21 6 -7 12 -47 13 -88 2
-48 8 -83 19 -99 12 -18 13 -27 4 -36 -8 -8 -9 -16 -1 -29 6 -9 8 -26 4 -37
-4 -11 -5 -24 -2 -30 4 -5 8 -19 9 -30 2 -11 12 -26 23 -34 22 -15 26 -41 9
-58 -9 -9 -9 -19 0 -41 7 -16 9 -40 6 -54 -5 -18 -2 -27 9 -31 18 -7 21 -34 5
-39 -8 -3 -2 -21 15 -52 26 -47 26 -49 9 -68 -16 -18 -16 -20 -1 -29 21 -11
31 -65 30 -162 0 -71 2 -79 21 -88 18 -8 22 -20 24 -60 1 -28 7 -56 13 -63 5
-8 8 -21 4 -29 -3 -9 -2 -22 2 -29 4 -7 8 -47 9 -89 0 -55 5 -83 16 -96 14
-17 23 -83 21 -160 0 -23 4 -33 15 -33 11 0 14 -6 9 -25 -5 -18 1 -39 18 -68
22 -37 23 -45 12 -72 -15 -35 -5 -94 17 -110 18 -13 25 -45 13 -63 -4 -7 -3
-19 3 -26 6 -7 8 -28 5 -47 -5 -26 -1 -38 14 -52 17 -15 19 -24 11 -46 -7 -20
-6 -35 6 -57 8 -16 15 -50 15 -76 0 -36 5 -51 19 -60 15 -9 18 -19 14 -46 -5
-27 -2 -38 12 -48 14 -10 16 -22 12 -49 -4 -26 -2 -38 8 -42 11 -4 13 -15 9
-44 -6 -33 -3 -44 17 -65 18 -19 21 -29 13 -42 -6 -9 -9 -30 -7 -47 5 -35 42
-105 56 -105 5 0 7 -20 5 -45 -4 -32 -2 -45 7 -45 16 0 27 -27 14 -35 -5 -4
-7 -11 -4 -16 4 -5 1 -9 -6 -9 -9 0 -8 -70 3 -129 2 -8 -9 -36 -39 -103 -14
-31 -25 -59 -24 -63 1 -3 -9 -20 -23 -36 -15 -17 -26 -39 -26 -49 0 -11 -11
-36 -25 -56 -14 -20 -25 -42 -25 -49 0 -6 -11 -22 -25 -35 -14 -13 -25 -26
-25 -30 0 -4 -18 -26 -40 -49 -22 -23 -50 -61 -61 -84 -12 -23 -37 -55 -55
-70 -19 -16 -46 -53 -60 -83 -14 -30 -29 -54 -34 -54 -17 0 -105 -97 -139
-153 -19 -31 -59 -82 -88 -114 -29 -31 -53 -64 -53 -72 0 -24 -68 -154 -85
-164 -20 -11 -67 -104 -71 -141 -2 -16 -13 -43 -24 -61 -34 -55 -67 -161 -75
-240 -1 -16 -14 -54 -28 -83 -21 -44 -23 -59 -16 -87 7 -25 6 -44 -6 -71 -8
-20 -15 -46 -15 -58 0 -12 -5 -27 -11 -33 -7 -7 -13 -33 -15 -60 -2 -26 -6
-86 -9 -132 -3 -46 -2 -88 3 -95 8 -10 8 -46 -1 -142 -3 -22 0 -63 4 -90 5
-27 10 -68 12 -90 1 -23 9 -49 17 -59 15 -18 20 -42 24 -117 1 -25 7 -57 13
-70 41 -84 63 -140 59 -147 -8 -13 15 -75 31 -84 7 -4 13 -19 13 -32 0 -14 9
-34 21 -46 11 -11 19 -28 18 -37 -3 -38 2 -50 26 -56 16 -4 27 -16 31 -33 10
-38 42 -90 59 -97 8 -3 15 -11 15 -19 0 -7 13 -26 28 -43 15 -16 27 -39 26
-51 -1 -15 10 -31 32 -48 19 -14 34 -32 34 -40 0 -7 10 -26 23 -42 35 -43 47
-76 32 -90 -7 -6 -13 -43 -14 -89 -5 -152 -6 -172 -13 -180 -5 -4 -8 -24 -8
-44 0 -20 -7 -45 -16 -56 -8 -10 -12 -12 -8 -4 7 13 5 13 -9 1 -9 -7 -17 -22
-17 -32 0 -10 -11 -25 -23 -34 -26 -16 -51 -61 -42 -75 3 -4 -2 -10 -10 -14
-8 -3 -20 -17 -27 -31 -6 -13 -19 -27 -29 -30 -9 -3 -32 -26 -51 -50 -30 -39
-45 -50 -86 -60 -26 -7 -108 -49 -127 -66 -12 -10 -42 -21 -69 -23 -26 -3 -55
-11 -62 -17 -8 -6 -40 -13 -72 -15 -31 -2 -80 -7 -109 -12 -28 -4 -61 -5 -73
0 -24 9 -80 2 -94 -12 -9 -9 -112 -2 -136 10 -18 10 -203 43 -245 45 -16 0
-50 7 -74 14 -25 7 -56 10 -70 8 -14 -3 -41 1 -60 9 -18 8 -43 14 -54 14 -11
0 -45 8 -76 19 -115 38 -135 43 -185 47 -31 2 -71 14 -97 28 -42 23 -70 30
-165 41 -23 2 -61 13 -85 23 -72 31 -189 63 -218 61 -27 -3 -92 7 -151 22
-125 31 -178 40 -228 38 -31 -1 -66 3 -77 7 -11 5 -47 8 -80 6 -33 -2 -75 -2
-92 -2 -139 5 -466 -4 -480 -13 -15 -10 -98 -22 -133 -19 -78 5 -125 1 -176
-18 -32 -11 -77 -20 -101 -20 -23 0 -52 -4 -65 -9 -13 -5 -48 -16 -78 -26 -30
-10 -60 -22 -66 -26 -6 -5 -42 -13 -80 -18 -52 -8 -74 -16 -89 -33 -19 -22
-75 -40 -164 -54 -19 -2 -46 -14 -62 -24 -15 -11 -35 -20 -45 -20 -9 0 -25 -7
-34 -15 -10 -9 -27 -18 -40 -20 -26 -5 -70 -32 -70 -43 0 -11 -69 -44 -99 -48
-13 -2 -40 -14 -60 -28 -20 -14 -41 -26 -47 -26 -5 0 -16 -9 -24 -20 -8 -11
-21 -20 -28 -20 -8 0 -34 -19 -58 -42 -73 -70 -83 -78 -104 -78 -11 0 -48 -28
-84 -63 -35 -35 -85 -76 -111 -92 -26 -15 -50 -36 -52 -46 -3 -10 -14 -21 -24
-24 -10 -4 -28 -19 -40 -36 -11 -16 -25 -27 -30 -24 -11 7 -61 -44 -54 -56 3
-4 -15 -27 -40 -50 -25 -24 -48 -54 -52 -67 -3 -13 -20 -32 -37 -43 -54 -33
-136 -121 -136 -146 0 -16 -6 -23 -20 -23 -24 0 -52 -41 -52 -76 -1 -17 -7
-28 -19 -31 -17 -5 -49 -58 -49 -82 0 -6 -4 -11 -10 -11 -5 0 -12 -11 -16 -25
-3 -14 -11 -25 -16 -25 -16 0 -37 32 -38 57 0 12 -9 27 -20 33 -11 6 -20 17
-20 26 0 15 -14 23 -44 28 -9 1 -23 12 -32 24 -8 12 -34 30 -57 41 -42 19 -97
64 -97 80 0 14 -62 40 -84 35 -11 -2 -28 4 -38 13 -12 10 -42 18 -86 20 -37 3
-77 11 -90 19 -12 8 -41 15 -65 15 -23 0 -62 0 -87 0 -25 0 -63 -2 -85 -5 -22
-3 -48 -6 -58 -6 -21 -1 -114 -47 -122 -60 -3 -6 -22 -10 -42 -10 -35 0 -103
-33 -103 -50 0 -5 -17 -18 -37 -30 -21 -13 -58 -44 -83 -70 -25 -26 -56 -50
-68 -54 -12 -4 -29 -22 -38 -39 -9 -18 -25 -39 -36 -48 -13 -10 -24 -35 -29
-68 -6 -42 -17 -62 -49 -97 -23 -25 -40 -52 -38 -62 1 -9 -4 -32 -11 -51 -11
-25 -12 -43 -4 -72 8 -30 6 -45 -7 -75 -14 -29 -17 -59 -15 -137 2 -55 8 -104
14 -110 6 -6 11 -22 11 -37 0 -36 29 -114 46 -123 8 -4 14 -14 14 -20 0 -7 12
-24 28 -38 44 -41 66 -72 77 -108 7 -23 21 -40 44 -52 19 -10 39 -23 45 -29 5
-5 21 -10 33 -10 16 0 30 -10 41 -30 10 -17 39 -40 72 -56 30 -15 65 -39 77
-53 16 -20 29 -25 52 -23 25 3 33 -1 42 -22 14 -29 46 -43 62 -27 18 18 37 13
37 -10 0 -17 4 -20 24 -15 14 3 28 1 31 -5 8 -13 112 -6 127 9 7 7 20 4 42 -9
38 -22 74 -21 87 3 17 32 28 19 24 -31 -2 -36 -10 -55 -30 -75 -27 -27 -30
-61 -7 -89 10 -12 9 -16 -4 -21 -11 -4 -14 -13 -11 -27 3 -12 1 -33 -4 -47 -5
-14 -12 -57 -14 -96 -7 -114 -12 -159 -19 -194 -5 -20 -3 -38 3 -46 8 -10 7
-21 -3 -41 -11 -22 -12 -33 -3 -53 9 -20 9 -26 -1 -30 -9 -3 -9 -9 -1 -23 5
-11 9 -27 8 -37 -1 -9 2 -26 6 -36 6 -13 4 -21 -3 -24 -18 -6 -14 -30 5 -41
16 -8 16 -14 5 -55 -15 -56 -15 -93 -2 -101 6 -4 5 -13 -3 -26 -10 -17 -9 -22
5 -30 11 -6 16 -23 16 -60 1 -28 6 -57 13 -65 9 -11 9 -18 1 -26 -17 -17 -15
-28 9 -36 20 -8 21 -9 3 -26 -17 -18 -17 -19 5 -35 20 -15 24 -29 28 -102 2
-46 4 -94 5 -107 0 -15 9 -27 24 -34 18 -8 21 -15 14 -28 -6 -11 -2 -32 15
-67 13 -28 21 -54 18 -57 -4 -3 2 -15 12 -26 11 -12 19 -38 20 -66 1 -37 7
-52 28 -70 28 -24 39 -46 12 -24 -11 9 -18 10 -29 1 -7 -6 -21 -8 -31 -5 -10
4 -20 1 -25 -7 -7 -10 -14 -11 -32 -2 -13 6 -30 11 -38 11 -8 0 -23 3 -32 7
-11 4 -20 0 -28 -14 -9 -17 -14 -19 -29 -9 -15 9 -23 9 -34 -1 -11 -9 -17 -9
-22 -1 -4 6 -13 9 -20 6 -7 -2 -25 2 -41 10 -25 13 -29 13 -37 -1 -6 -12 -23
-15 -72 -13 -35 1 -67 -1 -71 -5 -4 -4 -19 1 -33 10 -21 13 -53 17 -156 19
-72 1 -134 -2 -140 -6 -16 -13 -74 -19 -81 -8 -4 5 -19 8 -34 5 -15 -3 -32 -1
-37 4 -7 7 -16 5 -26 -6 -13 -13 -21 -14 -38 -5 -15 9 -24 9 -32 1 -8 -8 -16
-6 -29 6 -14 12 -21 13 -32 4 -8 -7 -32 -14 -53 -15 -62 -5 -71 -12 -67 -54 6
-50 15 -155 14 -167 -7 -100 -7 -132 1 -141 6 -7 3 -23 -7 -44 -16 -32 -16
-33 7 -51 13 -10 20 -19 14 -19 -5 0 -16 -4 -24 -9 -12 -8 -12 -12 -2 -25 10
-12 11 -23 2 -46 -10 -30 -6 -60 8 -60 4 0 6 -12 5 -27 0 -16 3 -40 7 -55 5
-20 4 -30 -7 -36 -23 -13 -24 -45 -2 -68 11 -12 15 -24 10 -28 -5 -3 -7 -37
-5 -77 3 -59 1 -73 -14 -84 -16 -12 -16 -13 0 -30 12 -12 15 -21 8 -29 -15
-18 -16 -79 -2 -114 11 -27 11 -35 0 -49 -11 -13 -11 -17 -1 -20 16 -6 16 -29
-1 -36 -17 -6 -21 -57 -4 -57 6 0 18 4 25 9 7 4 31 5 52 1 23 -4 43 -3 49 3 7
7 15 6 26 -3 12 -10 18 -10 30 0 13 11 18 10 29 -6 12 -15 16 -16 30 -5 9 8
26 11 40 7 16 -4 26 -1 30 9 5 13 11 12 42 -5 34 -19 38 -20 54 -5 17 15 19
15 28 -1 7 -12 15 -15 28 -9 11 5 22 7 26 7 5 -1 8 3 8 9 0 11 32 7 87 -9 24
-8 36 -7 50 5 10 8 12 11 4 7 -10 -5 -12 -3 -6 6 6 10 11 9 21 -5 19 -25 52
-26 69 -2 13 19 13 19 24 -2 14 -25 48 -27 73 -5 16 16 18 16 24 0 7 -19 31
-21 36 -4 4 10 10 10 31 1 20 -10 28 -9 37 2 6 8 19 11 27 8 27 -11 68 -10 75
1 5 7 8 4 8 -6 0 -10 5 -18 11 -18 5 0 7 5 3 12 -5 8 -2 9 9 5 10 -3 17 -2 17
3 0 9 53 5 71 -5 5 -4 16 -2 23 4 15 12 46 5 46 -11 0 -6 8 -2 17 9 10 10 14
13 9 6 -6 -10 -4 -12 8 -7 9 3 16 2 16 -2 0 -17 91 -16 116 1 14 9 29 13 34
10 6 -3 10 -1 10 6 0 7 8 6 24 -4 13 -9 33 -13 44 -11 11 3 23 1 27 -6 5 -8
12 -7 25 5 15 14 22 14 40 5 18 -10 21 -9 15 0 -6 10 -1 11 21 5 55 -14 84
-16 84 -6 0 10 25 9 36 -2 4 -4 17 0 30 8 19 12 23 12 28 0 4 -11 19 -14 58
-11 29 2 63 0 76 -5 13 -5 21 -5 18 0 -10 16 23 20 39 5 9 -9 15 -11 15 -4 0
6 4 9 9 6 5 -3 12 2 16 12 6 16 7 16 21 -2 8 -11 14 -15 14 -8 0 8 8 9 23 4
12 -5 33 -7 47 -6 14 2 34 -2 45 -7 15 -7 32 -5 64 9 38 17 46 18 70 6 30 -16
60 -18 80 -5 7 5 29 5 48 0 26 -5 42 -3 59 7 15 11 24 12 29 4 5 -8 10 -8 20
0 10 8 19 8 34 0 12 -6 21 -8 21 -5 0 3 10 -1 22 -9 29 -20 77 -21 84 -1 7 17
34 21 34 5 0 -11 53 -14 63 -3 4 3 34 5 66 4 35 -1 62 2 66 9 5 8 17 5 39 -8
24 -14 38 -17 50 -10 11 6 22 6 32 -3 11 -9 18 -8 34 6 17 15 20 16 25 2 4 -8
17 -14 29 -13 16 1 22 6 18 16 -5 13 -4 13 13 0 11 -9 16 -10 11 -2 -9 16 8
16 35 0 17 -10 23 -10 26 0 3 6 9 12 14 12 6 0 7 -6 4 -13 -4 -6 1 -3 9 7 9
11 16 14 16 8 0 -7 9 -12 19 -12 11 0 23 -4 26 -10 8 -13 62 -13 67 -1 5 15
74 16 92 2 9 -8 23 -10 33 -6 10 5 29 9 43 10 14 1 39 5 56 8 19 4 38 2 50 -7
17 -13 21 -12 38 2 18 16 19 16 13 -1 -5 -12 -3 -16 5 -11 17 11 59 12 84 3
13 -5 32 -2 49 7 25 13 30 13 46 -1 13 -12 19 -13 25 -4 5 8 3 10 -7 4 -11 -6
-12 -5 -2 5 10 11 18 11 37 2 16 -7 28 -8 31 -2 4 6 14 6 27 -1 29 -15 119
-19 141 -5 14 8 20 8 27 -4 9 -13 12 -13 24 3 11 14 21 17 38 11 34 -11 48
-13 48 -5 0 10 84 5 107 -7 14 -8 23 -8 30 -1 8 8 17 7 32 -1 17 -9 22 -8 27
4 3 9 12 12 21 9 11 -4 14 -2 9 5 -5 8 -2 10 8 6 9 -3 14 -9 12 -13 -8 -12
103 -6 115 6 18 18 29 16 30 -4 0 -12 2 -13 6 -5 4 10 8 10 21 0 12 -10 14
-10 8 0 -8 13 6 17 18 5 10 -11 36 -12 36 -2 0 15 22 10 36 -9 12 -16 13 -16
26 0 7 10 24 18 38 19 29 1 145 -10 178 -17 13 -3 29 -1 35 5 14 10 117 19
117 10 0 -4 11 -9 25 -11 15 -3 22 -1 18 5 -4 7 0 7 13 2 10 -5 30 -9 44 -9
14 -1 31 -5 39 -10 9 -6 18 -4 26 7 15 21 34 22 41 3 6 -16 13 -15 66 3 25 8
43 9 55 3 10 -6 26 -7 41 -1 15 6 38 5 63 -3 29 -8 43 -8 51 0 8 8 19 7 41 -4
30 -16 76 -12 88 8 4 7 13 6 27 -1 11 -6 28 -8 36 -5 9 4 24 0 33 -7 12 -10
15 -10 9 -2 -4 7 -3 13 3 13 5 0 11 -4 13 -10 2 -6 13 -4 29 4 17 8 32 10 42
5 10 -6 18 -5 22 1 3 5 11 10 16 10 6 0 8 -4 5 -9 -4 -5 3 -7 15 -4 12 4 25 0
30 -8 7 -12 9 -12 9 0 0 11 3 11 14 2 11 -9 20 -9 34 -2 11 6 22 7 26 4 14
-14 57 -13 78 1 17 12 25 13 37 3 12 -10 13 -9 7 1 -7 12 -4 12 14 2 17 -9 24
-9 30 0 5 8 12 7 25 -6 16 -16 19 -16 29 -2 8 11 17 13 35 6 13 -5 28 -5 35 0
16 13 49 11 65 -5 11 -12 16 -12 31 2 17 15 19 15 30 -2 11 -17 11 -17 6 0 -4
12 -2 17 6 14 7 -2 12 -9 11 -15 -2 -8 5 -9 20 -4 25 9 55 8 79 -2 10 -5 27
-1 42 9 37 25 58 25 85 1 13 -11 21 -16 18 -10 -4 7 0 14 8 18 8 3 15 1 15 -4
0 -4 16 -4 37 2 29 8 39 7 47 -4 14 -17 140 -18 157 -1 10 10 17 9 31 -4 14
-12 21 -14 26 -6 12 19 61 27 67 11 7 -19 43 -16 85 6 27 15 32 16 22 3 -10
-12 -10 -17 -1 -23 8 -4 9 -3 5 5 -9 13 48 13 76 -1 11 -5 22 -3 32 7 13 14
19 14 50 1 19 -8 50 -12 68 -9 18 3 35 5 38 6 3 0 22 -3 43 -7 25 -6 42 -4 52
4 8 7 35 13 60 14 25 0 45 5 45 10 0 6 9 0 21 -13 17 -19 29 -21 72 -18 29 3
65 10 82 16 18 8 31 8 33 3 2 -6 11 -8 21 -5 10 2 42 0 72 -5 37 -7 58 -7 66
0 9 7 22 7 42 -2 23 -9 37 -9 65 1 19 7 33 17 30 23 -3 6 1 4 8 -5 14 -17 65
-23 73 -8 3 4 20 3 37 -2 17 -5 50 -6 71 -2 26 4 38 2 34 -4 -7 -11 43 -11 60
0 7 4 15 2 18 -4 4 -6 18 -8 34 -4 14 4 35 8 47 9 11 2 25 6 31 9 6 4 19 0 29
-8 23 -18 48 -19 77 -3 12 6 40 11 62 10 22 -1 48 -2 58 -3 9 0 17 -6 17 -12
1 -7 9 -2 20 11 19 23 19 23 32 3 9 -15 16 -17 30 -10 10 5 64 10 119 11 77 1
103 -2 110 -13 8 -10 8 -7 4 10 l-7 24 23 -21 c20 -20 24 -20 39 -7 23 21 35
19 19 -3 -13 -16 -12 -16 6 -1 22 18 100 16 131 -4 7 -4 14 -1 17 7 6 16 23
16 47 1 24 -15 78 -15 90 0 8 10 18 11 36 5 16 -6 24 -6 24 1 0 12 52 8 61 -5
9 -12 58 -16 65 -5 3 5 12 5 23 -1 10 -5 21 -6 25 -2 4 3 24 7 44 8 20 1 49 5
64 8 15 3 29 2 33 -4 3 -6 15 -6 30 0 19 7 27 6 34 -8 9 -16 12 -15 32 6 15
17 24 21 29 12 5 -8 10 -8 14 -2 4 7 20 7 48 0 24 -6 61 -10 82 -9 22 1 44 -5
48 -11 6 -10 12 -9 22 4 7 10 16 15 19 11 4 -3 7 -1 7 6 0 8 11 4 30 -9 23
-17 34 -19 44 -11 7 6 22 8 31 4 13 -4 16 -3 11 5 -10 17 0 15 19 -4 12 -12
19 -13 30 -4 16 13 60 16 92 6 12 -4 24 -2 28 3 4 7 -1 8 -12 5 -14 -5 -15 -4
-4 4 11 8 22 6 40 -7 30 -21 119 -23 142 -4 11 9 19 8 33 -3 25 -17 52 -18 59
-1 2 7 18 13 33 15 23 1 26 0 14 -8 -11 -8 -7 -9 15 -4 17 4 35 10 40 14 12 9
50 -4 60 -19 4 -8 12 -8 25 -1 10 5 26 7 34 4 9 -4 22 -1 30 5 15 13 46 5 46
-12 0 -6 6 -3 13 8 8 11 19 15 26 10 20 -12 99 -17 105 -6 4 6 18 6 39 0 42
-12 43 -12 61 7 9 8 16 11 16 5 0 -6 9 -11 20 -11 11 0 20 -4 20 -10 0 -16 18
-12 40 10 18 18 56 18 44 -1 -3 -5 3 -6 12 -2 13 5 15 3 9 -7 -5 -9 -4 -11 4
-6 7 5 27 10 44 13 18 3 39 9 47 13 9 5 19 2 26 -8 12 -16 13 -16 19 -1 6 15
10 15 48 1 55 -19 138 -22 144 -5 7 18 52 16 59 -2 8 -19 38 -19 67 0 19 12
30 12 61 3 29 -9 42 -9 57 0 11 7 24 10 29 7 18 -11 51 -14 45 -4 -10 15 22
10 35 -6 9 -11 17 -12 23 -6 7 7 16 7 29 0 12 -6 24 -6 36 0 13 7 23 6 31 -2
10 -9 11 -9 7 3 -5 12 3 15 33 17 26 1 41 -3 45 -13 6 -16 62 -19 71 -4 4 6
10 8 14 6 4 -3 44 -8 88 -11 67 -4 82 -2 87 11 3 8 11 12 17 8 17 -10 59 -14
59 -5 0 11 33 10 47 -1 7 -5 36 -7 65 -3 29 4 64 2 78 -3 19 -7 31 -6 44 3 13
10 25 11 42 4 14 -5 35 -9 47 -9 12 0 45 -2 74 -4 40 -3 53 -1 58 11 5 14 8
13 25 -2 18 -16 22 -17 33 -3 15 19 47 31 47 18 0 -5 7 -7 15 -4 8 4 15 1 15
-5 0 -6 3 -10 8 -10 4 1 9 0 12 -1 20 -9 82 -4 91 7 15 17 125 18 132 1 4 -10
6 -10 6 0 1 10 5 10 17 -2 11 -12 20 -13 34 -6 10 5 26 7 34 4 9 -3 30 -1 48
5 26 9 35 9 43 -1 5 -7 20 -13 32 -14 17 0 20 3 12 12 -7 8 -7 14 1 19 5 3 10
1 10 -5 0 -6 5 -8 12 -4 6 4 17 -1 24 -10 11 -16 17 -16 49 -6 28 9 39 9 51
-1 14 -11 18 -10 30 5 9 13 20 17 38 12 15 -3 26 -11 26 -16 0 -6 7 -10 15
-10 8 0 15 5 15 10 0 6 26 10 63 10 34 -1 71 -1 82 0 25 1 170 -7 170 -10 0
-1 10 -3 23 -4 12 -2 22 2 22 7 0 5 7 4 15 -3 10 -8 24 -9 42 -4 36 10 163 12
163 2 0 -12 35 -9 48 4 8 8 15 8 27 -2 13 -11 19 -10 37 9 16 18 22 20 29 9 5
-7 9 -9 9 -4 0 5 9 1 20 -9 16 -14 23 -15 34 -6 8 7 24 10 35 6 10 -3 22 -1
26 5 4 6 12 7 22 1 9 -4 32 -5 52 0 27 6 40 4 53 -8 15 -13 19 -13 39 0 20 15
54 13 45 -2 -3 -4 4 -8 15 -8 10 -1 19 3 19 9 0 6 9 8 20 5 11 -3 23 -1 26 4
3 6 10 6 17 1 7 -5 31 -12 55 -16 34 -5 44 -3 49 10 6 15 7 15 19 -1 12 -16
17 -17 39 -5 19 10 33 11 62 2 40 -11 72 -13 71 -3 -2 25 5 28 44 21 24 -5 46
-6 51 -3 4 2 14 -1 22 -7 8 -7 22 -10 30 -6 9 3 24 0 34 -6 15 -9 24 -8 46 6
22 14 29 15 42 4 20 -16 83 -20 99 -7 12 10 84 7 114 -5 9 -4 33 2 55 13 39
19 71 18 59 -1 -4 -6 0 -7 12 -1 11 5 25 8 32 7 6 -1 19 -2 28 -3 8 0 12 -6 8
-12 -4 -8 3 -9 22 -5 83 16 102 17 109 6 5 -8 10 -8 20 0 8 7 24 9 37 5 16 -4
19 -3 9 3 -11 8 -11 11 0 18 7 4 14 3 17 -4 2 -7 8 -9 13 -6 6 3 15 1 22 -4
23 -18 89 -21 144 -7 42 11 59 12 73 3 15 -10 23 -9 39 6 14 13 21 15 21 6 0
-10 3 -10 15 0 8 7 15 8 15 3 0 -5 12 -15 26 -22 21 -9 30 -9 42 1 13 11 14
11 7 -2 -8 -13 -6 -13 8 -2 9 8 20 11 25 8 6 -3 24 -1 41 5 27 9 34 9 44 -5 9
-13 25 -16 62 -14 28 2 55 6 60 10 6 3 36 4 67 2 32 -2 60 1 63 6 3 4 28 1 56
-8 40 -13 54 -14 69 -4 24 15 57 16 65 2 10 -16 21 -12 34 13 6 12 9 14 6 4
-3 -11 -1 -16 6 -12 5 4 24 1 41 -6 25 -10 31 -10 39 2 5 8 9 10 9 5 0 -5 6
-4 13 2 17 14 78 13 70 -2 -4 -6 0 -5 9 2 11 9 18 10 23 2 3 -5 12 -10 18 -10
8 0 8 3 -2 9 -8 5 -9 11 -3 15 6 3 13 2 17 -3 3 -6 13 -7 22 -4 12 5 14 3 8
-7 -5 -9 -4 -11 4 -6 6 4 18 2 26 -4 12 -10 18 -10 30 0 12 10 19 10 27 2 6
-6 18 -8 27 -3 19 10 97 8 107 -2 4 -4 16 0 26 9 13 13 21 14 32 5 7 -6 21 -9
30 -5 9 3 22 1 30 -5 14 -12 46 -5 46 9 0 5 14 1 31 -7 24 -12 39 -13 64 -6
18 6 47 9 66 8 19 -2 42 1 51 6 12 7 20 4 27 -8 10 -17 10 -17 11 0 0 10 5 15
10 12 6 -4 8 -10 6 -14 -8 -12 51 -12 81 1 41 17 96 17 109 0 8 -10 20 -13 40
-8 53 12 74 14 74 6 0 -8 70 2 87 13 6 4 13 2 15 -4 4 -13 80 -20 116 -10 15
4 40 4 57 0 21 -6 34 -4 46 7 15 13 18 13 33 -1 16 -17 22 -16 158 3 36 5 61
5 67 -1 7 -7 15 -6 25 3 17 13 66 6 66 -10 0 -14 21 -12 54 5 19 10 33 12 41
5 8 -6 15 -6 23 2 7 7 12 8 12 2 0 -11 11 -13 85 -18 28 -1 55 1 60 4 20 14
64 20 70 10 4 -6 16 -8 28 -4 28 9 207 8 215 -2 4 -4 1 -4 -7 1 -10 5 -12 4
-7 -4 4 -6 13 -8 19 -4 11 7 35 9 195 15 34 1 62 7 62 12 0 5 9 0 20 -12 23
-24 41 -27 71 -12 11 6 19 7 19 1 0 -5 9 -7 20 -4 11 3 20 10 20 15 0 6 8 4
17 -3 14 -12 15 -12 9 -1 -7 11 -4 12 13 3 12 -7 25 -10 29 -8 4 3 16 1 27 -3
13 -4 24 -2 31 8 9 12 14 12 35 2 23 -13 23 -12 9 6 -14 19 -14 19 7 0 20 -16
25 -17 40 -5 15 12 16 12 8 -1 -7 -12 -6 -13 6 -3 20 16 97 12 104 -5 6 -17
26 -15 40 5 11 15 20 16 62 7 35 -7 55 -7 67 1 12 7 19 6 26 -5 9 -13 10 -13
10 0 0 10 3 11 8 4 4 -7 38 -10 85 -9 43 0 80 -2 83 -6 6 -10 84 -5 92 7 8 12
55 17 48 5 -3 -4 1 -8 9 -8 8 0 12 4 9 9 -3 4 -1 8 5 8 5 0 11 -5 13 -11 2 -6
24 -13 48 -15 34 -3 48 1 58 14 12 16 14 16 28 -3 14 -19 16 -19 28 -2 15 19
36 23 36 6 0 -10 49 -7 69 5 5 3 16 0 24 -8 8 -8 17 -13 20 -10 3 4 25 8 49
10 24 2 49 6 57 9 7 3 19 1 26 -5 17 -14 79 -20 96 -9 7 4 21 3 32 -2 11 -7
23 -7 30 -1 7 5 29 9 50 8 20 -1 42 1 49 5 7 4 17 0 24 -9 11 -15 15 -15 39
-2 33 17 106 19 123 3 14 -13 55 -9 60 7 6 16 42 12 60 -6 14 -15 17 -15 29 2
12 16 14 16 30 1 13 -11 23 -13 36 -5 10 5 25 7 33 4 9 -3 12 -1 9 4 -3 6 5
10 19 10 14 0 27 -4 30 -9 3 -4 25 -6 48 -3 72 9 312 1 324 -11 13 -13 53 -7
62 9 8 14 15 14 65 2 56 -15 57 -15 73 9 12 19 13 28 4 38 -9 11 -9 23 -1 45
7 21 7 48 0 86 -6 35 -7 60 -1 67 11 13 10 76 -1 93 -3 6 -3 14 1 18 4 4 8 30
8 57 1 28 4 53 8 56 3 3 1 14 -5 24 -21 41 -28 113 -13 148 11 26 12 36 3 42
-9 5 -9 18 -2 48 7 24 7 43 2 47 -5 3 -7 9 -4 14 3 5 0 12 -6 15 -11 8 -4 71
10 90 11 13 8 86 -3 104 -6 9 -4 17 7 22 18 10 12 48 -10 66 -13 10 -12 14 6
32 26 26 26 35 -1 61 l-22 20 20 27 c14 20 18 38 14 63 -4 30 -10 35 -40 42
-23 4 -57 1 -98 -10 -57 -15 -63 -15 -78 0 -15 15 -19 15 -40 1 -13 -8 -28
-12 -33 -9 -19 12 -163 16 -183 5 -14 -7 -23 -7 -34 2 -12 10 -18 9 -31 -4
-14 -14 -18 -14 -39 0 -15 10 -33 13 -54 8 -19 -4 -30 -3 -30 4 0 17 -58 13
-67 -4 -7 -12 -16 -13 -43 -5 -19 6 -46 8 -60 5 -14 -3 -53 -7 -87 -9 -49 -3
-63 -1 -63 10 0 18 -57 19 -62 2 -5 -15 -76 -12 -95 3 -9 8 -20 5 -39 -10 -44
-35 -69 -26 -39 13 8 11 15 28 15 38 0 10 6 21 14 24 8 3 19 19 25 35 5 16 15
29 20 29 15 0 14 53 -1 68 -9 9 -9 12 3 13 7 1 18 1 22 0 4 -1 10 7 13 16 3
10 11 28 16 40 6 12 8 28 5 37 -6 14 18 75 33 86 17 12 31 52 23 63 -19 25 11
115 46 139 17 12 38 71 32 92 -1 5 5 17 14 26 10 11 16 33 15 52 -3 53 -1 58
25 70 14 6 25 17 25 25 0 8 6 24 14 36 8 12 16 49 17 81 2 47 6 60 21 64 19 5
24 27 8 37 -14 9 9 51 37 66 20 11 24 19 19 40 -3 17 0 32 8 39 8 6 13 25 12
41 -2 24 3 33 20 39 23 9 41 51 49 109 2 18 13 52 25 76 12 25 18 49 15 55 -4
7 2 21 13 33 28 32 40 58 37 87 -1 14 7 35 18 47 16 18 18 25 8 37 -10 12 -7
20 18 43 27 24 30 32 23 58 -7 22 -4 39 8 65 10 19 21 50 25 68 4 18 18 40 32
49 16 10 23 23 20 34 -3 10 2 24 10 30 8 7 12 21 9 31 -2 12 2 22 11 25 8 3
13 13 10 24 -3 10 4 25 14 35 15 13 16 21 8 37 -9 16 -8 22 5 29 9 5 16 18 16
29 0 11 7 22 16 26 10 4 14 13 10 27 -3 14 3 29 19 46 15 16 26 42 30 75 4 28
11 51 16 53 5 2 9 22 9 44 0 31 4 41 19 45 26 7 41 45 32 80 -9 32 14 93 36
93 16 0 35 36 30 58 -2 9 7 39 20 65 19 39 22 51 12 63 -10 12 -9 16 8 20 20
6 48 57 56 104 8 44 19 70 29 70 6 0 7 11 4 26 -5 19 -1 30 14 42 12 9 22 28
24 42 1 14 6 33 10 43 5 9 6 23 3 30 -3 7 1 21 8 30 7 10 11 26 8 36 -3 13 2
20 17 24 17 4 20 9 12 23 -13 24 -4 50 22 62 18 8 22 18 23 62 0 44 5 57 32
84 17 17 31 42 31 53 0 12 5 25 10 28 6 4 8 21 4 42 -5 28 -3 39 10 49 10 7
18 26 20 42 1 17 7 36 13 44 7 7 23 49 37 92 15 43 33 84 41 90 9 6 18 29 20
51 3 22 13 63 22 90 10 28 17 59 18 70 0 13 6 19 18 17 18 -3 42 42 33 64 -3
7 2 18 9 24 9 8 13 21 9 36 -4 16 2 34 21 58 20 26 25 43 21 60 -8 31 2 56 21
56 11 0 14 7 10 22 -3 11 1 34 9 49 7 15 14 36 14 45 0 10 7 25 16 35 14 16
14 18 -3 23 -19 6 -49 70 -45 93 2 7 -5 13 -15 13 -21 0 -53 48 -46 68 3 6 0
12 -5 12 -6 0 -12 -5 -14 -12 -3 -9 -14 -9 -49 1 -64 20 -179 23 -179 5 0 -18
-14 -18 -29 0 -14 16 -127 21 -165 6 -14 -5 -27 -5 -33 1 -6 6 -19 6 -34 1
-26 -10 -57 -9 -107 2 -20 5 -38 3 -46 -3 -8 -7 -28 -9 -46 -6 -18 3 -38 1
-45 -5 -9 -7 -21 -6 -41 5 -34 17 -84 20 -84 4 0 -7 -7 -8 -17 -4 -20 8 -20 8
-84 2 -26 -2 -52 -7 -57 -11 -6 -3 -18 1 -27 11 -14 14 -21 14 -37 4 -14 -8
-23 -9 -32 -2 -8 7 -16 7 -22 1 -7 -7 -29 -7 -64 0 -44 8 -56 7 -70 -5 -14
-13 -21 -13 -41 -3 -32 17 -271 12 -310 -6 -18 -8 -41 -5 -50 7 -10 13 -59 18
-78 7 -13 -7 -45 -6 -101 2 -64 9 -87 9 -102 -1 -10 -6 -29 -9 -40 -5 -11 3
-84 7 -161 8 -110 1 -144 -2 -155 -13 -12 -13 -15 -12 -23 2 -8 13 -20 15 -67
10 -31 -3 -64 -5 -72 -5 -8 1 -35 2 -60 3 -25 1 -58 -1 -74 -6 -18 -5 -36 -4
-47 3 -12 8 -27 9 -41 3 -21 -8 -56 -7 -188 3 -25 2 -48 -1 -51 -6 -3 -5 -14
-8 -25 -8 -10 1 -48 2 -84 3 -36 1 -70 5 -76 9 -7 4 -26 3 -44 -3 -24 -9 -37
-9 -55 1 -14 7 -31 9 -42 5 -10 -5 -21 -8 -24 -7 -38 7 -108 8 -124 2 -11 -4
-32 -3 -46 2 -15 5 -35 5 -50 0 -15 -6 -30 -5 -41 2 -13 8 -23 8 -38 -2 -14
-9 -26 -10 -38 -3 -12 7 -22 5 -33 -5 -13 -12 -23 -12 -66 -1 -27 7 -58 10
-69 7 -10 -4 -32 -5 -48 -3 -16 1 -33 -2 -37 -9 -6 -9 -11 -9 -23 1 -11 10
-20 10 -28 3 -9 -7 -25 -6 -53 4 -22 7 -44 9 -48 5 -5 -5 -22 -4 -38 2 -21 8
-35 8 -47 1 -18 -11 -236 -12 -262 -1 -19 8 -86 4 -96 -6 -12 -12 -52 -8 -57
6 -3 9 -8 9 -16 1 -9 -8 -24 -9 -52 -1 -29 7 -47 6 -66 -2 -20 -9 -28 -9 -34
0 -5 9 -11 8 -24 -4 -12 -13 -21 -14 -35 -7 -20 11 -21 24 -3 54 6 10 8 27 6
37 -3 10 7 33 21 52 20 26 25 42 20 61 -4 17 1 41 16 70 12 25 19 50 15 55 -3
6 3 15 14 21 17 9 19 14 9 35 -9 19 -8 29 5 48 15 23 34 121 43 217 2 25 6 68
9 95 3 28 7 82 10 122 2 39 6 94 10 121 4 40 2 51 -11 56 -13 5 -14 9 -5 20
13 15 14 33 9 150 -2 51 -8 81 -16 84 -8 2 -9 9 -2 23 7 13 7 25 1 38 -7 11
-7 30 -1 50 6 22 5 33 -4 38 -16 10 -27 61 -14 69 5 3 4 12 -3 20 -12 15 -17
48 -22 141 -2 33 -10 59 -21 72 -15 16 -16 24 -7 35 15 18 -2 66 -24 66 -12 0
-14 4 -5 19 14 27 12 61 -5 95 -8 15 -15 36 -15 45 0 9 -9 27 -19 41 -14 17
-17 29 -10 42 7 13 4 20 -10 27 -22 12 -53 87 -47 116 4 23 -28 86 -62 124
-12 13 -20 31 -17 39 3 8 -2 23 -11 33 -9 10 -14 24 -11 31 2 7 -2 21 -10 30
-24 28 -16 150 14 200 11 18 19 45 18 58 -1 14 2 36 7 50 6 14 10 43 9 65 -1
28 6 49 21 68 27 33 32 63 17 99 -8 19 -8 32 -1 41 10 12 20 67 26 145 2 23 9
63 15 90 18 79 20 139 6 166 -11 20 -11 32 -1 61 13 38 14 165 1 186 -4 6 -9
44 -11 83 -1 39 -5 85 -9 101 -3 17 -8 62 -10 100 -5 95 -13 146 -27 162 -6 8
-13 42 -14 75 -2 44 -9 70 -25 91 -13 19 -22 47 -24 77 -1 27 -10 63 -19 81
-9 17 -16 40 -16 49 0 23 -29 87 -57 127 -13 17 -23 37 -23 44 0 19 -52 119
-61 119 -8 0 -59 102 -59 117 0 4 -18 44 -40 89 -27 53 -53 92 -75 109 -19 14
-35 33 -35 41 0 14 -87 112 -154 173 -16 14 -43 40 -61 56 -31 30 -111 99
-171 149 -17 14 -44 27 -60 30 -45 8 -84 27 -109 52 -13 13 -36 26 -52 30 -15
4 -37 13 -49 21 -12 7 -42 15 -68 17 -27 3 -56 12 -68 22 -10 10 -41 24 -66
31 -56 15 -226 36 -262 33 -70 -7 -107 7 -82 32 13 13 7 90 -11 127 -10 19 -8
25 8 37 15 11 17 18 9 32 -7 10 -8 26 -3 39 6 17 3 22 -13 26 -18 5 -20 11
-14 39 4 18 9 43 12 55 2 12 0 33 -6 48 -7 18 -6 31 2 44 9 15 8 22 -5 36 -19
19 -22 46 -6 62 13 13 -8 123 -24 123 -5 0 -6 14 -3 33 12 54 9 75 -14 107
-23 33 -30 105 -12 137 8 13 7 22 -4 34 -15 17 -24 45 -28 94 -2 16 -9 31 -15
33 -9 3 -6 11 8 26 l21 22 -30 32 c-24 27 -27 36 -20 61 6 22 4 33 -7 42 -11
10 -13 24 -9 51 4 23 2 38 -4 38 -19 0 -30 47 -19 82 7 26 6 35 -7 45 -10 7
-13 19 -9 32 8 25 -10 61 -31 61 -11 0 -12 4 -5 19 6 10 8 20 6 23 -3 3 -7 22
-10 44 -10 91 -15 110 -34 125 -13 11 -18 26 -16 55 2 39 -17 79 -55 114 -10
8 -19 26 -23 40 -3 14 -8 35 -10 47 -3 12 -13 33 -22 46 -10 15 -14 34 -10 50
5 17 2 26 -9 30 -26 10 -48 64 -36 87 9 18 6 25 -19 48 -17 14 -31 32 -31 38
0 6 -9 19 -19 28 -11 10 -23 36 -26 58 -5 27 -13 42 -25 45 -15 4 -17 10 -10
29 8 20 6 25 -15 30 -21 5 -23 9 -14 26 11 20 0 43 -28 61 -7 4 -13 19 -13 32
0 16 -10 31 -27 42 -35 22 -43 33 -43 59 0 11 -11 31 -25 44 -13 13 -34 42
-46 64 -12 23 -27 45 -35 49 -8 4 -14 19 -14 32 0 16 -6 25 -15 25 -8 0 -15 5
-15 10 0 20 -3 25 -21 38 -11 7 -19 22 -19 34 0 29 -35 82 -64 98 -23 12 -43
44 -38 62 1 4 -18 26 -42 48 -24 22 -47 52 -50 65 -4 16 -13 25 -26 25 -17 0
-19 5 -15 30 3 17 2 30 -2 29 -40 -7 -53 2 -53 35 0 30 -5 37 -37 53 -29 13
-39 25 -41 46 -2 16 -11 31 -20 34 -22 9 -41 34 -42 56 0 10 -8 17 -20 17 -11
0 -23 6 -26 14 -3 8 -23 27 -45 42 -26 18 -39 34 -39 49 0 16 -8 25 -25 29
-14 4 -25 13 -25 21 0 8 -11 17 -25 21 -14 3 -25 10 -25 15 0 5 -7 12 -16 16
-21 8 -82 71 -89 92 -3 9 -21 26 -40 39 -19 12 -35 27 -35 32 0 6 -10 10 -23
10 -12 0 -28 9 -35 20 -7 11 -19 20 -26 20 -8 0 -18 9 -21 20 -3 11 -15 20
-25 20 -10 0 -20 7 -24 15 -3 8 -14 15 -24 15 -11 0 -37 13 -59 29 -22 16 -50
32 -64 36 -13 4 -49 21 -78 37 -46 24 -62 28 -98 22 -35 -5 -44 -3 -49 11 -5
13 -14 15 -36 11 -18 -4 -41 1 -61 12 -32 17 -41 17 -202 9 -23 -1 -53 -10
-68 -19 -14 -10 -32 -18 -39 -18 -7 0 -18 -10 -23 -22 -6 -13 -29 -32 -53 -43
-37 -17 -55 -39 -56 -70 -1 -6 -11 -21 -23 -35 -13 -13 -23 -28 -23 -33 0 -5
-8 -21 -19 -35 -17 -26 -30 -65 -34 -107 -1 -11 -12 -39 -24 -63 -13 -23 -23
-51 -23 -60 0 -10 -5 -23 -11 -29 -6 -6 -10 -26 -10 -44 4 -90 1 -112 -17
-145 -6 -12 -9 -24 -6 -27 9 -9 10 -111 2 -123 -16 -22 -17 -53 -2 -65 11 -9
12 -15 3 -25 -6 -8 -13 -29 -14 -47 -1 -17 -6 -41 -10 -51 -5 -11 -3 -38 3
-61 8 -29 8 -53 2 -76 -6 -19 -10 -46 -10 -60 0 -14 -7 -39 -15 -55 -8 -16
-17 -50 -21 -74 -3 -25 -8 -61 -11 -80 -3 -19 -6 -55 -7 -80 -1 -25 -8 -57
-15 -72 -10 -19 -11 -34 -4 -55 7 -18 7 -37 1 -53 -6 -14 -13 -47 -18 -75 -4
-27 -11 -61 -15 -75 -4 -14 -9 -39 -10 -57 -2 -17 -6 -36 -9 -41 -13 -21 -16
-81 -7 -121 5 -22 6 -41 1 -41 -19 0 -43 -84 -45 -157 -1 -43 -10 -107 -20
-143 -10 -36 -18 -76 -19 -90 -1 -14 -5 -30 -9 -37 -4 -7 -7 -36 -7 -65 1 -66
-6 -133 -19 -175 -5 -17 -7 -34 -4 -36 2 -3 -1 -16 -8 -28 -15 -29 -22 -70
-21 -133 0 -28 -6 -63 -15 -79 -11 -22 -14 -49 -10 -103 3 -41 1 -77 -3 -79
-13 -8 -33 -115 -31 -165 2 -51 -22 -164 -39 -185 -6 -7 -10 -33 -9 -57 2 -69
-12 -151 -31 -173 -22 -26 -30 -55 -36 -134 -3 -40 -12 -73 -24 -90 -11 -14
-21 -37 -23 -51 -2 -14 -6 -32 -9 -40 -3 -8 -11 -35 -19 -60 -14 -52 -33 -77
-62 -86 -28 -9 -47 -29 -47 -49 0 -17 -20 -27 -93 -44 -66 -15 -103 -14 -133
6 -17 10 -49 17 -87 18 -34 1 -73 7 -86 14 -14 8 -45 13 -70 13 -274 -6 -348
-9 -358 -15 -16 -10 -114 -17 -127 -9 -6 4 -18 7 -26 7 -24 1 -85 46 -106 79
-10 17 -26 42 -35 56 -8 14 -25 26 -38 28 -16 3 -20 8 -16 23 9 27 -3 57 -25
64 -10 3 -17 12 -14 18 2 7 -7 35 -21 61 -19 36 -24 56 -19 81 4 22 2 36 -8
41 -21 14 -58 71 -58 91 0 10 -9 31 -19 46 -10 16 -17 37 -14 46 2 10 -7 32
-22 49 -20 24 -25 39 -21 59 5 21 0 35 -19 58 -22 24 -25 36 -20 67 6 35 4 41
-31 73 -21 19 -35 35 -30 35 4 0 1 12 -7 28 -17 33 -38 91 -41 114 -1 9 -8 23
-15 32 -7 8 -10 24 -6 35 4 14 0 23 -13 30 -14 7 -18 18 -14 41 5 35 -11 78
-51 137 -18 27 -26 50 -22 62 4 13 0 20 -15 24 -16 4 -19 11 -15 30 6 24 -10
50 -37 59 -7 3 -11 19 -10 41 1 20 -4 47 -12 59 -8 13 -21 49 -30 82 -8 32
-25 69 -37 82 -12 13 -19 24 -15 24 4 0 0 10 -8 22 -9 12 -16 29 -16 36 0 8
-9 26 -21 40 -13 17 -18 34 -15 48 5 17 1 24 -14 29 -11 3 -23 18 -26 33 -3
15 -9 36 -14 47 -5 11 -11 32 -14 46 -3 14 -17 38 -31 53 -14 15 -28 39 -31
54 -4 15 -15 36 -26 48 -11 12 -21 43 -25 75 -5 45 -12 60 -41 88 -30 28 -35
39 -34 71 3 43 -20 88 -60 120 -15 11 -32 37 -38 58 -7 20 -19 48 -27 61 -8
12 -12 32 -10 43 4 14 0 22 -14 25 -12 4 -19 13 -17 27 3 31 -22 86 -38 86 -9
0 -14 9 -12 28 2 29 -17 72 -32 72 -5 0 -12 10 -15 23 -11 37 -39 91 -52 100
-7 4 -13 18 -13 30 0 15 -11 29 -30 41 -23 13 -29 22 -25 37 5 14 -1 26 -18
39 -14 11 -28 31 -31 45 -4 14 -14 25 -22 25 -12 0 -15 7 -12 23 2 13 0 28 -6
34 -6 6 -19 19 -28 29 -9 11 -24 25 -32 32 -9 7 -16 23 -16 36 0 13 -7 26 -15
30 -8 3 -15 17 -15 30 0 36 -52 108 -138 192 -13 13 -25 29 -26 36 -1 7 -8 24
-17 38 -8 14 -19 34 -25 45 -6 11 -20 21 -32 23 -20 3 -38 44 -27 63 4 5 -7
14 -24 20 -17 6 -32 15 -32 20 -1 5 -3 14 -4 19 -1 6 -3 14 -4 19 0 5 -11 13
-23 17 -35 10 -58 35 -58 61 0 16 -6 23 -20 23 -15 0 -20 7 -20 24 0 18 -6 26
-22 28 -14 2 -31 18 -45 43 -16 28 -29 40 -45 40 -13 0 -24 6 -24 13 -1 6 -2
17 -3 22 0 6 -10 10 -20 10 -13 0 -21 8 -23 23 -2 14 -9 21 -21 21 -11 -1 -17
5 -17 18 0 11 -8 22 -20 25 -11 3 -20 13 -20 22 0 23 -20 41 -46 41 -21 0
-104 79 -104 100 0 5 -7 10 -15 10 -8 0 -22 14 -30 31 -9 17 -31 37 -51 45
-30 13 -39 23 -35 46 0 4 -10 5 -24 2 -17 -3 -25 1 -30 15 -4 13 -13 18 -26
16 -15 -3 -24 5 -36 30 -14 28 -21 33 -40 29 -16 -4 -25 -1 -29 10 -3 9 -13
16 -20 16 -8 0 -19 10 -25 23 -9 19 -46 41 -139 80 -14 6 -40 22 -58 35 -18
13 -40 22 -50 21 -24 -3 -52 11 -52 26 0 20 -17 27 -39 16 -14 -8 -22 -7 -29
2 -6 7 -23 14 -39 15 -15 1 -36 12 -45 25 -17 21 -17 21 -31 3 -13 -18 -14
-18 -30 4 -12 17 -20 20 -29 13 -17 -14 -82 -11 -100 4 -8 7 -19 8 -28 3 -8
-5 -21 -5 -31 0 -11 7 -25 2 -48 -14z m8456 -5321 c7 -2 15 0 18 6 4 5 10 7
15 4 5 -3 56 -8 112 -11 59 -3 109 -11 118 -18 27 -22 70 -36 110 -36 22 0 40
-4 40 -9 0 -5 10 -13 23 -17 12 -4 37 -18 55 -32 18 -14 41 -26 50 -27 9 -1
28 -7 42 -12 14 -6 30 -12 37 -14 16 -6 108 -85 163 -140 25 -25 55 -49 67
-53 12 -4 26 -19 31 -34 5 -15 33 -51 61 -80 28 -29 51 -58 51 -63 0 -6 16
-27 35 -47 61 -66 85 -99 85 -120 0 -19 52 -123 97 -192 13 -19 23 -44 23 -55
0 -11 9 -35 20 -53 12 -19 27 -58 35 -88 8 -30 21 -64 29 -76 9 -12 16 -32 16
-44 0 -12 6 -37 14 -55 7 -19 17 -43 21 -54 4 -11 9 -35 10 -52 1 -18 7 -38
12 -45 12 -16 23 -51 29 -97 3 -19 9 -41 13 -49 5 -9 5 -28 0 -44 -8 -29 -7
-42 9 -99 5 -19 5 -47 1 -63 -5 -16 -6 -33 -3 -38 3 -5 7 -47 9 -93 2 -46 8
-92 14 -103 5 -10 6 -23 2 -28 -15 -15 -22 -115 -11 -149 7 -21 7 -51 0 -96
-6 -35 -11 -74 -10 -87 0 -13 -5 -33 -11 -44 -12 -21 -14 -32 -24 -133 -7 -68
-33 -187 -50 -227 -10 -26 -13 -27 -31 -14 -19 14 -20 18 -23 55 0 11 -21 43
-44 73 -24 29 -42 59 -39 66 6 18 -29 81 -48 87 -8 3 -23 25 -34 50 -12 30
-26 47 -41 51 -15 4 -27 18 -36 46 -7 23 -22 44 -34 50 -16 7 -21 16 -17 33 3
17 -2 25 -16 29 -11 4 -22 19 -25 35 -4 20 -14 31 -32 35 -14 4 -25 14 -25 24
0 9 -18 30 -40 46 -26 19 -40 38 -40 52 0 13 -8 24 -20 27 -11 3 -20 14 -20
25 0 10 -9 27 -20 37 -11 10 -22 25 -25 35 -3 9 -23 24 -45 33 -32 12 -42 22
-46 46 -7 34 -19 47 -49 53 -11 2 -21 10 -21 18 -1 8 -2 21 -3 28 0 6 -8 12
-16 12 -8 0 -15 5 -15 10 0 6 -12 16 -27 23 -38 17 -73 51 -73 71 0 9 -4 17
-10 17 -5 1 -16 2 -22 3 -7 1 -13 11 -12 24 0 17 -5 22 -23 22 -13 0 -26 7
-29 15 -3 8 -14 17 -25 20 -12 4 -19 16 -19 31 0 17 -6 24 -19 24 -30 0 -51
11 -51 26 0 7 -9 18 -20 24 -11 6 -20 17 -20 25 0 26 -53 71 -77 67 -19 -3
-23 1 -23 23 0 23 -4 26 -21 22 -15 -4 -22 1 -29 18 -5 13 -29 36 -54 50 -26
15 -46 31 -46 36 0 5 -17 17 -37 26 -36 18 -37 19 -37 76 -1 36 4 63 12 69 10
9 9 14 -4 29 -12 13 -13 22 -5 38 6 11 14 46 17 78 2 32 7 66 10 76 3 10 0 24
-6 32 -10 12 -9 16 4 21 18 7 21 36 6 65 -7 13 -7 25 -1 38 6 11 7 30 2 49 -6
19 -5 34 2 41 6 6 11 48 11 95 1 46 4 88 9 92 12 12 8 51 -8 64 -13 11 -13 14
0 27 11 10 12 20 5 32 -5 10 -7 21 -4 24 3 3 8 33 9 66 2 34 7 66 10 71 3 6 3
16 -2 22 -4 7 -8 25 -9 40 -2 29 6 30 63 13z m-7647 -11915 c0 -5 -5 -10 -11
-10 -5 0 -7 5 -4 10 3 6 8 10 11 10 2 0 4 -4 4 -10z"/>
<path d="M2987 3255 c3 -8 9 -12 14 -9 12 7 11 11 -5 17 -10 4 -13 1 -9 -8z"/>
<path d="M4946 3248 c3 -5 10 -6 15 -3 13 9 11 12 -6 12 -8 0 -12 -4 -9 -9z"/>
</g>
</svg>
